<?xml version="1.0" encoding="iso-8859-1"?>
<!-- Uploaded to: SVG Repo, www.svgrepo.com, Generator: SVG Repo Mixer Tools -->
<svg fill="#000000" height="800px" width="800px" version="1.1" id="Layer_1" xmlns="http://www.w3.org/2000/svg" xmlns:xlink="http://www.w3.org/1999/xlink" 
	 viewBox="0 0 512 512" xml:space="preserve">
<g>
	<g>
		<g>
			<path d="M490.981,208.133h-15.17c-1.505-6.932-3.346-13.82-5.506-20.59l13.13-7.581c10.035-5.795,13.487-18.673,7.694-28.712
				l-26.848-46.503c-3.745-6.484-10.723-10.511-18.214-10.511c-3.673,0-7.304,0.974-10.498,2.819l-13.174,7.607
				c-4.777-5.246-9.813-10.283-15.055-15.054l7.607-13.174c2.807-4.862,3.554-10.527,2.1-15.95
				c-1.453-5.423-4.931-9.955-9.794-12.762L360.75,20.873c-3.194-1.843-6.824-2.819-10.498-2.819
				c-7.491,0-14.471,4.027-18.214,10.512l-7.581,13.129c-6.766-2.159-13.653-4-20.589-5.506v-15.17
				C303.868,9.429,294.439,0,282.849,0h-53.696c-11.59,0-21.019,9.429-21.019,21.019v15.17c-6.936,1.506-13.822,3.347-20.589,5.506
				l-7.58-13.128c-3.744-6.485-10.722-10.513-18.215-10.513c-3.673,0-7.304,0.974-10.498,2.819l-46.5,26.847
				c-4.863,2.808-8.342,7.34-9.795,12.763c-1.454,5.423-0.707,11.088,2.1,15.95l7.607,13.174
				c-5.242,4.772-10.278,9.808-15.054,15.054l-13.176-7.606c-3.193-1.843-6.822-2.818-10.497-2.818
				c-7.491,0-14.472,4.027-18.215,10.512l-26.847,46.5c-2.807,4.862-3.554,10.527-2.101,15.95c1.453,5.423,4.93,9.955,9.793,12.763
				l13.13,7.58c-2.16,6.771-4.002,13.658-5.506,20.59H21.018C9.428,208.134,0,217.562,0,229.152v53.694
				c0,11.59,9.429,21.019,21.019,21.019h15.17c1.505,6.933,3.346,13.821,5.506,20.591l-13.131,7.58
				c-10.037,5.797-13.487,18.678-7.691,28.712l26.846,46.504c3.745,6.485,10.723,10.512,18.215,10.512
				c3.673,0,7.303-0.974,10.497-2.818l13.176-7.608c4.775,5.246,9.81,10.282,15.052,15.054l-7.607,13.175
				c-2.805,4.863-3.552,10.527-2.099,15.95c1.454,5.424,4.931,9.957,9.794,12.762l46.501,26.848
				c3.194,1.844,6.824,2.819,10.498,2.819c7.493,0,14.474-4.028,18.214-10.513l7.58-13.128c6.766,2.158,13.654,4,20.59,5.505v15.171
				c0,11.59,9.429,21.019,21.019,21.019h53.696c11.59,0,21.019-9.429,21.019-21.019V475.81c6.936-1.505,13.823-3.348,20.591-5.505
				l7.579,13.128c3.745,6.485,10.723,10.513,18.214,10.513c3.675,0,7.304-0.974,10.498-2.819l46.5-26.847
				c4.863-2.807,8.341-7.339,9.795-12.762c1.454-5.424,0.707-11.088-2.1-15.95l-7.606-13.175c5.244-4.775,10.279-9.81,15.054-15.054
				l13.175,7.608c3.194,1.842,6.822,2.815,10.495,2.815c7.491,0,14.471-4.026,18.215-10.511l26.848-46.504
				c5.795-10.038,2.343-22.917-7.694-28.711l-13.13-7.581c2.16-6.769,4.002-13.658,5.506-20.591h15.175
				c11.59,0,21.019-9.429,21.019-21.019v-53.694C512,217.562,502.571,208.133,490.981,208.133z M495.832,282.847
				c0,2.675-2.175,4.851-4.851,4.851h-21.79c-3.897,0-7.239,2.78-7.948,6.612c-1.953,10.536-4.756,21.018-8.331,31.154
				c-1.295,3.67,0.21,7.744,3.582,9.689l18.854,10.887c2.315,1.337,3.113,4.308,1.775,6.625l-26.847,46.503
				c-0.866,1.498-2.48,2.427-4.215,2.427c-0.853,0-1.664-0.219-2.412-0.651l-18.897-10.911c-3.373-1.949-7.65-1.215-10.18,1.74
				c-6.984,8.148-14.655,15.818-22.801,22.801c-2.955,2.532-3.685,6.809-1.74,10.18l10.91,18.9c0.648,1.121,0.819,2.427,0.484,3.679
				c-0.336,1.25-1.138,2.296-2.261,2.945l-46.501,26.848c-0.749,0.432-1.562,0.652-2.413,0.652c-1.733,0-3.347-0.93-4.212-2.429
				l-10.885-18.852c-1.947-3.372-6.019-4.875-9.689-3.582c-10.129,3.571-20.612,6.375-31.156,8.33
				c-3.831,0.71-6.61,4.053-6.61,7.948v21.789c0,2.674-2.175,4.851-4.851,4.851h-53.696c-2.674,0-4.851-2.176-4.851-4.851v-21.79
				c0-3.896-2.779-7.238-6.61-7.948c-10.546-1.956-21.029-4.759-31.154-8.33c-0.884-0.311-1.791-0.461-2.686-0.461
				c-2.822,0-5.525,1.484-7.003,4.043l-10.888,18.853c-0.863,1.497-2.477,2.427-4.211,2.427c-0.852,0-1.664-0.22-2.413-0.652
				l-46.503-26.849c-1.122-0.648-1.923-1.692-2.259-2.943c-0.334-1.253-0.163-2.56,0.484-3.682l10.909-18.897
				c1.946-3.371,1.215-7.649-1.74-10.18c-8.142-6.979-15.813-14.65-22.799-22.801c-2.533-2.955-6.811-3.689-10.18-1.74l-18.9,10.909
				c-0.748,0.432-1.561,0.652-2.412,0.652c-1.734,0-3.349-0.93-4.214-2.427l-26.847-46.504c-1.337-2.315-0.54-5.287,1.774-6.625
				l18.856-10.885c3.371-1.947,4.876-6.019,3.582-9.689c-3.574-10.137-6.378-20.619-8.331-31.154
				c-0.709-3.832-4.052-6.612-7.948-6.612h-21.79c-2.674,0-4.851-2.175-4.851-4.851v-53.694c0-2.674,2.176-4.851,4.851-4.851h21.79
				c3.897,0,7.239-2.78,7.948-6.611c1.953-10.534,4.755-21.016,8.331-31.154c1.294-3.671-0.21-7.744-3.582-9.689l-18.855-10.886
				c-1.121-0.648-1.923-1.693-2.259-2.945c-0.335-1.251-0.163-2.559,0.485-3.681l26.846-46.501c0.864-1.498,2.479-2.427,4.214-2.427
				c0.852,0,1.663,0.219,2.412,0.651l18.899,10.912c3.372,1.946,7.649,1.213,10.18-1.74c6.987-8.152,14.658-15.823,22.8-22.8
				c2.956-2.533,3.688-6.811,1.741-10.181l-10.91-18.902c-0.649-1.122-0.82-2.428-0.485-3.68c0.336-1.251,1.138-2.297,2.261-2.945
				l46.501-26.848c0.749-0.432,1.562-0.652,2.413-0.652c1.734,0,3.348,0.93,4.212,2.427l10.887,18.855
				c1.947,3.372,6.021,4.877,9.69,3.582c10.128-3.572,20.608-6.376,31.152-8.33c3.832-0.71,6.611-4.053,6.611-7.949v-21.79
				c0-2.674,2.176-4.851,4.851-4.851h53.696c2.675,0,4.851,2.176,4.851,4.851v21.789c0,3.897,2.779,7.238,6.611,7.949
				c10.544,1.955,21.025,4.758,31.152,8.33c3.668,1.296,7.744-0.21,9.69-3.582l10.887-18.855c0.878-1.521,2.452-2.427,4.212-2.427
				c0.852,0,1.664,0.22,2.413,0.652l46.501,26.848c1.123,0.649,1.925,1.694,2.261,2.945c0.334,1.251,0.163,2.558-0.485,3.68
				l-10.911,18.899c-1.947,3.371-1.215,7.649,1.741,10.181c8.14,6.975,15.812,14.646,22.802,22.801
				c2.532,2.953,6.809,3.685,10.18,1.74l18.897-10.912c0.749-0.432,1.562-0.652,2.413-0.652c1.733,0,3.349,0.93,4.212,2.427
				l26.847,46.501c1.337,2.316,0.541,5.289-1.774,6.626l-18.854,10.886c-3.372,1.947-4.876,6.018-3.582,9.689
				c3.575,10.138,6.378,20.62,8.331,31.154c0.709,3.832,4.052,6.612,7.948,6.612h21.79c2.675,0,4.851,2.176,4.851,4.851V282.847z"/>
			<path d="M256,109.036c-81.037,0-146.964,65.927-146.964,146.964c0,81.036,65.927,146.964,146.964,146.964
				c40.744,0,80.04-17.198,107.812-47.183c3.033-3.276,2.838-8.39-0.438-11.426c-3.277-3.032-8.39-2.838-11.426,0.438
				c-24.721,26.693-59.695,42.002-95.95,42.002c-72.121,0-130.796-58.675-130.796-130.796s58.675-130.796,130.796-130.796
				S386.796,183.879,386.796,256c0,24.473-6.831,48.35-19.755,69.052c-2.364,3.788-1.211,8.775,2.577,11.139
				c3.788,2.365,8.775,1.21,11.139-2.577c14.529-23.273,22.208-50.111,22.208-77.614C402.964,174.963,337.037,109.036,256,109.036z"
				/>
			<path d="M256,76.699c-98.868,0-179.301,80.435-179.301,179.301S157.132,435.301,256,435.301S435.301,354.867,435.301,256
				C435.301,157.132,354.868,76.699,256,76.699z M256,419.133c-89.951,0-163.133-73.18-163.133-163.133S166.049,92.867,256,92.867
				S419.133,166.048,419.133,256S345.951,419.133,256,419.133z"/>
			<path d="M256,206.734c13.058,0,25.362,5.057,34.647,14.241c3.173,3.14,8.292,3.113,11.432-0.063
				c3.14-3.174,3.112-8.292-0.063-11.432c-12.33-12.197-28.674-18.915-46.016-18.915c-36.08,0-65.434,29.354-65.434,65.435
				s29.354,65.435,65.434,65.435c36.08,0,65.434-29.353,65.434-65.435c0-6.872-1.062-13.643-3.156-20.126
				c-1.373-4.249-5.933-6.581-10.177-5.209c-4.248,1.372-6.581,5.928-5.208,10.177c1.575,4.876,2.372,9.976,2.372,15.158
				c0,27.165-22.1,49.266-49.265,49.266c-27.165,0-49.265-22.101-49.265-49.266C206.735,228.835,228.835,206.734,256,206.734z"/>
		</g>
	</g>
</g>
</svg>