<?xml version="1.0" encoding="iso-8859-1"?>
<!-- Uploaded to: SVG Repo, www.svgrepo.com, Generator: SVG Repo Mixer Tools -->
<svg fill="#000000" height="800px" width="800px" version="1.1" id="Layer_1" xmlns="http://www.w3.org/2000/svg" xmlns:xlink="http://www.w3.org/1999/xlink" 
	 viewBox="0 0 512 512" xml:space="preserve">
<g>
	<g>
		<g>
			<path d="M256.001,169.516c14.904,0,29.619,3.874,42.554,11.204c3.992,2.262,9.064,0.861,11.326-3.132
				c2.263-3.993,0.861-9.064-3.132-11.326c-15.429-8.744-32.977-13.365-50.747-13.365c-56.851,0-103.104,46.253-103.104,103.104
				c0,21.057,6.325,41.325,18.293,58.612c1.613,2.33,4.205,3.58,6.839,3.58c1.631,0,3.278-0.48,4.722-1.477
				c3.773-2.612,4.714-7.789,2.102-11.562c-10.034-14.495-15.338-31.492-15.338-49.152
				C169.516,208.313,208.313,169.516,256.001,169.516z"/>
			<path d="M322.988,188.449c-3.502,2.965-3.938,8.209-0.972,11.711c13.2,15.587,20.469,35.418,20.469,55.839
				c0,47.687-38.797,86.485-86.485,86.485c-17.931,0-35.146-5.46-49.785-15.789c-3.749-2.646-8.934-1.75-11.58,1.999
				c-2.646,3.75-1.751,8.934,1.999,11.58c17.458,12.318,37.986,18.829,59.366,18.829c56.85,0,103.102-46.253,103.102-103.102
				c0-24.35-8.666-47.994-24.404-66.58C331.735,185.92,326.492,185.483,322.988,188.449z"/>
			<path d="M492.38,230.861c-15.087-3.777-26.498-14.999-30.523-30.023c-4.025-15.022,0.245-30.447,11.423-41.261
				c8.694-8.411,10.472-21.102,4.423-31.579c-6.048-10.478-17.93-15.283-29.561-11.958c-14.954,4.276-30.447,0.259-41.444-10.738
				c-10.997-10.997-15.011-26.49-10.738-41.444c3.324-11.633-1.481-23.512-11.959-29.562c-10.478-6.049-23.168-4.27-31.578,4.424
				c-10.816,11.178-26.241,15.448-41.264,11.423s-26.246-15.436-30.023-30.522C278.2,7.885,268.098,0,256.001,0
				c-12.097,0-22.199,7.886-25.137,19.624c-3.777,15.087-15,26.497-30.023,30.522c-15.023,4.025-30.447-0.245-41.262-11.423
				C151.168,30.028,138.475,28.25,128,34.3c-10.477,6.048-15.282,17.928-11.958,29.561c4.273,14.954,0.259,30.447-10.738,41.444
				c-10.998,10.996-26.491,15.012-41.446,10.738c-11.631-3.323-23.511,1.481-29.561,11.958s-4.271,23.168,4.424,31.579
				c11.178,10.814,15.448,26.239,11.423,41.261c-4.025,15.022-15.436,26.246-30.523,30.023C7.885,233.801,0,243.903,0,256.001
				c0,12.097,7.885,22.2,19.62,25.139c15.088,3.776,26.498,14.999,30.523,30.021s-0.245,30.447-11.423,41.261
				c-8.695,8.412-10.472,21.104-4.423,31.58c6.048,10.478,17.93,15.285,29.559,11.958c14.955-4.276,30.449-0.259,41.446,10.739
				c10.997,10.997,15.011,26.491,10.738,41.444c-3.324,11.631,1.481,23.51,11.958,29.559c10.477,6.049,23.168,4.272,31.58-4.423
				c10.812-11.179,26.236-15.45,41.26-11.424c15.023,4.025,26.247,15.436,30.024,30.523c2.937,11.735,13.039,19.62,25.137,19.62
				c12.096,0,22.198-7.885,25.136-19.626c3.777-15.088,14.999-26.498,30.023-30.523c15.025-4.024,30.449,0.245,41.263,11.423
				c8.411,8.694,21.102,10.471,31.579,4.424c10.477-6.049,15.282-17.928,11.958-29.559c-4.273-14.955-0.259-30.448,10.738-41.445
				c10.997-10.997,26.493-15.012,41.446-10.739c11.632,3.326,23.51-1.48,29.559-11.957c6.049-10.477,4.272-23.168-4.423-31.58
				c-11.178-10.814-15.448-26.239-11.423-41.261c4.025-15.023,15.436-26.247,30.522-30.023C504.115,278.196,512,268.095,512,255.997
				C512.001,243.9,504.116,233.798,492.38,230.861z M488.346,265.018c-21.027,5.262-36.93,20.904-42.541,41.841
				c-5.611,20.938,0.341,42.435,15.92,57.507c3.844,3.719,3.34,8.291,1.587,11.327c-1.753,3.037-5.459,5.756-10.602,4.288
				c-20.841-5.955-42.436-0.361-57.763,14.967c-15.327,15.327-20.921,36.921-14.966,57.763c1.469,5.142-1.252,8.847-4.289,10.601
				c-3.037,1.754-7.606,2.257-11.325-1.587c-15.072-15.579-36.568-21.531-57.508-15.921c-20.938,5.611-36.58,21.514-41.843,42.541
				c-1.3,5.188-5.509,7.036-9.015,7.036c-3.507,0-7.717-1.848-9.015-7.036c-5.263-21.028-20.905-36.932-41.843-42.541
				c-5.188-1.39-10.408-2.071-15.559-2.071c-15.635,0-30.612,6.272-41.945,17.993c-3.718,3.846-8.291,3.34-11.326,1.587
				c-3.038-1.753-5.759-5.459-4.289-10.601c5.955-20.841,0.36-42.435-14.966-57.762c-15.327-15.328-36.922-20.924-57.765-14.968
				c-5.142,1.471-8.847-1.251-10.601-4.288c-1.754-3.038-2.258-7.608,1.587-11.327c15.579-15.071,21.53-36.569,15.92-57.506
				c-5.609-20.939-21.513-36.58-42.541-41.844c-5.188-1.298-7.036-5.508-7.036-9.014c0-3.507,1.849-7.717,7.038-9.015
				c21.027-5.263,36.93-20.905,42.54-41.843c5.611-20.938-0.341-42.435-15.92-57.507c-3.844-3.719-3.34-8.289-1.587-11.326
				c1.753-3.037,5.457-5.761,10.602-4.289c20.842,5.957,42.436,0.361,57.763-14.967c15.327-15.327,20.921-36.921,14.966-57.763
				c-1.469-5.143,1.252-8.848,4.289-10.602c3.038-1.754,7.608-2.258,11.326,1.587c15.071,15.579,36.57,21.53,57.507,15.92
				c20.938-5.611,36.58-21.514,41.843-42.541c1.3-5.188,5.509-7.036,9.015-7.036c3.507,0,7.717,1.848,9.015,7.038
				c5.263,21.027,20.905,36.929,41.842,42.54c20.938,5.609,42.436-0.341,57.509-15.92c3.718-3.844,8.288-3.34,11.324-1.587
				c3.037,1.754,5.759,5.459,4.289,10.602c-5.956,20.842-0.361,42.436,14.966,57.763c15.327,15.328,36.922,20.922,57.764,14.967
				c5.145-1.469,8.848,1.252,10.601,4.289c1.754,3.037,2.258,7.607-1.587,11.326c-15.578,15.071-21.529,36.569-15.92,57.507
				c5.609,20.938,21.513,36.58,42.54,41.843c5.188,1.299,7.036,5.509,7.036,9.015C495.382,259.509,493.534,263.719,488.346,265.018z
				"/>
		</g>
	</g>
</g>
</svg>